<?xml version="1.0" encoding="UTF-8"?>
<svg id="Layer_1" data-name="Layer 1" xmlns="http://www.w3.org/2000/svg" viewBox="0 0 3000 2067.59">
  <defs>
    <style>
      .cls-1 {
        fill: #16d67f;
      }
    </style>
  </defs>
  <g>
    <path class="cls-1" d="M2264.14,1374.5c-188.17,0-340.71-152.54-340.71-340.71h0c0-188.17,152.54-340.71,340.71-340.71h461.05V203.44c0-112.36-91.08-203.44-203.44-203.44H203.44C91.08,0,0,91.08,0,203.44v1660.71c0,112.36,91.08,203.44,203.44,203.44h2318.31c112.36,0,203.44-91.08,203.44-203.44v-489.64h-461.05Z"/>
    <path class="cls-1" d="M2736.37,770.16h-462.1c-145.6,0-263.63,118.03-263.63,263.63h0c0,145.6,118.03,263.63,263.63,263.63h462.1c145.6,0,263.63-118.03,263.63-263.63h0c0-145.6-118.03-263.63-263.63-263.63ZM2263.75,1167.89c-74.06,0-134.1-60.04-134.1-134.1s60.04-134.1,134.1-134.1,134.1,60.04,134.1,134.1-60.04,134.1-134.1,134.1Z"/>
  </g>
  <g>
    <path d="M580.47,1277.23c7.12-7.12,16.91-11.27,27.3-11.27h941.71c17.21,0,25.81,20.77,13.65,32.93l-186.03,186.03c-7.12,7.12-16.91,11.27-27.3,11.27H408.09c-17.21,0-25.81-20.77-13.65-32.93l186.03-186.03Z"/>
    <path d="M580.47,582.67c7.42-7.12,17.21-11.27,27.3-11.27h941.71c17.21,0,25.81,20.77,13.65,32.93l-186.03,186.03c-7.12,7.12-16.91,11.27-27.3,11.27H408.09c-17.21,0-25.81-20.77-13.65-32.93l186.03-186.03Z"/>
    <path d="M1377.09,927.73c-7.12-7.12-16.91-11.27-27.3-11.27H408.09c-17.21,0-25.81,20.77-13.65,32.93l186.03,186.03c7.12,7.12,16.91,11.27,27.3,11.27h941.71c17.21,0,25.81-20.77,13.65-32.93l-186.03-186.03Z"/>
  </g>
</svg>